<svg xmlns="http://www.w3.org/2000/svg" version="1.1" xmlns:xlink="http://www.w3.org/1999/xlink" xmlns:svgjs="http://svgjs.com/svgjs" width="100%" height="100%" viewBox="0 0 1000 600"><rect width="1000" height="600" x="0" y="0" fill="#ffffff"/><g><circle r="166.66666666666666" cx="222.22225443522134" cy="244.44447157118097" fill="#ffffff" transform="matrix(2.25000013732911,0,0,2.25000013732911,0,-250.00002975464122)"/><path d="M197.35620855230073 199.05858373319768Q197.35620855230073 208.09395321257858 201.76135310274623 214.8142102274918Q206.16649765319173 221.53446724240501 212.40443957134084 226.03607481220337Q218.64238148948996 230.56983672178598 229.9928634333386 237.5151741151891L229.9928634333386 237.5151741151891Q242.05074085244127 244.68559188708213 248.7388435275702 249.54089719450747Q255.4591005424834 254.3962025019328 260.2179428305559 261.9203180114529Q264.94463077884416 269.44443352097295 264.94463077884416 279.86243961107766L264.94463077884416 279.86243961107766Q264.94463077884416 290.98784117643635 259.41408433594904 300.02321065581725Q253.85138355326976 309.02642579541396 243.07967972553803 314.2354288404663Q232.3079758978063 319.4444318855186 217.25974487876618 319.4444318855186L217.25974487876618 319.4444318855186Q199.4462406382785 319.4444318855186 184.6230899977283 311.34153825988164L184.6230899977283 311.34153825988164Q183.46553376549446 310.6662971244119 183.11183602786744 309.733821270668Q182.75813829024042 308.80134541692405 182.53305791175052 306.96854804922043L182.53305791175052 306.96854804922043L179.54270431181305 275.45729506063213Q179.28546959353886 274.55697354667245 180.57164318490982 274.2997388283983Q181.85781677628077 274.0746584499084 182.08289715477068 275.00713430365226L182.08289715477068 275.00713430365226Q185.78064622996217 291.6630823119061 195.84495458243984 303.72095973100875Q205.90926293491754 315.7466828103272 222.59736528295562 315.7466828103272L222.59736528295562 315.7466828103272Q234.17292760529418 315.7466828103272 242.1472038717941 309.38012353304094Q250.15363447807826 303.0135642557548 250.15363447807826 289.1228894689485L250.15363447807826 289.1228894689485Q250.15363447807826 278.70488337884376 245.52340954914283 271.0843048499709Q240.8931846202074 263.4315719813137 234.269390624647 258.4476493147513Q227.6777509688709 253.46372664818887 216.32726902502225 246.77562397305996L216.32726902502225 246.77562397305996Q205.2340217994478 240.0553669581467 198.8674625221616 235.2000616507214Q192.5009032448754 230.31260200351176 188.09575869442986 222.91710385312882Q183.69061414398436 215.52160570274583 183.69061414398436 205.55376036962093L183.69061414398436 205.55376036962093Q183.69061414398436 193.97819804728243 189.83209304278066 185.74668706250833Q195.97357194157695 177.54733041751854 205.8127999155647 173.4958836047Q215.6520278895525 169.44443679188151 226.74527511512693 169.44443679188151L226.74527511512693 169.44443679188151Q240.41086952344327 169.44443679188151 253.85138355326976 175.0071375745609L253.85138355326976 175.0071375745609Q257.32405224997126 176.16469380679473 257.32405224997126 178.9299670282423L257.32405224997126 178.9299670282423L258.931769239185 205.55376036962093Q258.931769239185 206.48623622336487 257.7742130069511 206.48623622336487Q256.6166567747173 206.48623622336487 256.3915763962274 205.55376036962093L256.3915763962274 205.55376036962093Q254.52662468873947 193.52803729030262 246.42373106310248 183.20649421955073Q238.32083743746549 172.9171054885831 223.04752603993546 172.9171054885831L223.04752603993546 172.9171054885831Q210.08932710687313 172.9171054885831 203.72276782958693 180.44122099810318Q197.35620855230073 187.96533650762325 197.35620855230073 199.05858373319768L197.35620855230073 199.05858373319768Z " fill="#000000" transform="matrix(2.25000013732911,0,0,2.25000013732911,0,-250.00002975464122)"/><path d="MNaN 244.44443766276106 " fill="#000000" transform="matrix(2.25000013732911,0,0,2.25000013732911,0,-250.00002975464122)"/></g></svg>